<svg height="512pt" viewBox="0 -30 512.12544 512" width="512pt" xmlns="http://www.w3.org/2000/svg"><path d="m459.691406 252.699219c-3.917968 10.691406-10.222656 20.351562-18.433594 28.242187-16.863281 16.414063-40.328124 24.183594-63.65625 21.078125l-.171874-.085937-63.0625-38.144532 9.046874-10.75 61.183594-72.789062 4.863282-5.804688 70.570312 25.773438c6.160156 16.972656 6.039062 35.589844-.339844 52.480469zm0 0" fill="#cad9fc"/><path d="m438.871094 252.699219c-3.917969 10.691406-10.222656 20.351562-18.433594 28.242187-11.734375 11.398438-26.804688 18.753906-43.007812 20.992188l-63.0625-38.144532 9.046874-10.75 61.183594-72.789062 54.613282 19.96875c6.160156 16.972656 6.039062 35.589844-.339844 52.480469zm0 0" fill="#e8edfc"/><path d="m441.257812 280.941406c-16.863281 16.414063-40.328124 24.183594-63.65625 21.078125l-63.234374-38.230469 9.046874-10.75 21.246094-2.558593s65.792969-13.910157 96.597656 30.460937zm0 0" fill="#cad9fc"/><path d="m93.867188 309.1875v57.769531c.003906 9.054688-3.59375 17.738281-9.996094 24.140625s-15.085938 9.996094-24.136719 9.996094h-51.199219v-34.136719h34.132813c9.414062-.027343 17.039062-7.652343 17.066406-17.066406v-51.199219zm0 0" fill="#e8edfc"/><path d="m493.398438 169.070312-101.546876 94.71875-23.125-8.617187-344.746093-128.425781 8.957031-23.980469 5.972656-16.042969 20.824219-55.976562c5.453125-14.667969 20.210937-23.71875 35.753906-21.929688 2.800781.257813 5.558594.886719 8.191407 1.875l386.816406 144.214844c2.773437 1.003906 4.824218 3.378906 5.414062 6.269531.59375 2.890625-.359375 5.878907-2.511718 7.894531zm0 0" fill="#cad9fc"/><path d="m469.417969 161.304688-100.691407 93.867187-344.746093-128.425781 8.957031-23.980469 5.972656-16.042969 20.824219-55.976562c5.453125-14.667969 20.210937-23.71875 35.753906-21.929688l371.027344 138.324219c2.773437 1.003906 4.824219 3.378906 5.417969 6.269531.589844 2.890625-.359375 5.878906-2.515625 7.894532zm0 0" fill="#e8edfc"/><path d="m391.851562 263.789062-17.921874 48.042969c-1.578126 4.238281-4.78125 7.667969-8.894532 9.542969-4.113281 1.871094-8.804687 2.03125-13.035156.441406l-16.894531-6.3125-302.933594-112.898437c-8.492187-3.136719-15.378906-9.53125-19.144531-17.761719-3.761719-8.230469-4.089844-17.625-.910156-26.097656l11.179687-30.207032.683594-1.792968zm0 0" fill="#cad9fc"/><path d="m366.933594 256.539062-17.921875 48.042969c-2.203125 5.96875-7.582031 10.195313-13.90625 10.921875l-302.933594-112.898437c-8.492187-3.136719-15.378906-9.53125-19.144531-17.761719-3.761719-8.230469-4.089844-17.625-.910156-26.097656l11.179687-30.207032zm0 0" fill="#e8edfc"/><path d="m168.105469 253.292969-30.035157 37.207031c-2.304687 2.875-6.195312 3.941406-9.644531 2.644531l-84.394531-31.488281c-3.507812-1.1875-5.78125-4.578125-5.546875-8.277344l1.621094-47.785156 105.730469 39.421875zm0 0" fill="#7facfa"/><path d="m145.835938 245.015625-29.183594 36.183594c-2.296875 2.882812-6.195313 3.953125-9.644532 2.644531l-66.816406-24.917969c-1.207031-1.585937-1.8125-3.554687-1.707031-5.546875l1.621094-47.785156zm0 0" fill="#a4c2f7"/><path d="m116.90625 288.84375c-6.828125 17.210938-26.160156 25.8125-43.519531 19.363281-17.359375-6.453125-26.378907-25.59375-20.308594-43.085937zm0 0" fill="#e8edfc"/><path d="m44.03125 261.65625 32.957031 12.296875c.175781-3.003906.742188-5.976563 1.6875-8.832031l59.996094 22.296875-69.039063-25.761719c-3.507812-1.1875-5.785156-4.578125-5.546874-8.277344l1.300781-38.359375-25.28125-9.425781-1.621094 47.785156c-.234375 3.699219 2.039063 7.089844 5.546875 8.277344zm0 0" fill="#fff"/><path d="m12.117188 158.746094c-3.179688 8.472656-2.851563 17.867187.910156 26.097656 3.765625 8.230469 10.652344 14.625 19.144531 17.761719l33.214844 12.378906.320312-9.390625 105.726563 39.421875 22.273437 8.277344-5.902343 7.3125 147.300781 54.898437 16.894531 6.3125c5.855469 2.183594 12.4375.964844 17.128906-3.164062l-8.425781-3.148438-302.933594-112.898437c-8.488281-3.136719-15.378906-9.53125-19.140625-17.761719-3.765625-8.230469-4.09375-17.625-.910156-26.097656l8.742188-23.625-22.480469-8.375-.683594 1.792968zm0 0" fill="#fff"/><path d="m32.9375 102.765625-8.957031 23.980469 22.480469 8.375 2.433593-6.582032.683594-1.792968 8.960937-23.980469 5.972657-16.042969 20.820312-55.976562c3.339844-9 10.328125-16.164063 19.242188-19.722656l-.894531-.332032c-2.632813-.988281-5.390626-1.617187-8.191407-1.875-15.542969-1.789062-30.300781 7.261719-35.753906 21.929688l-20.824219 55.976562zm0 0" fill="#fff"/><path d="m358.453125 241.808594-308.875-115.0625zm0 0" fill="#fff"/><path d="m85.332031 349.890625v-51.199219l.21875.066406c-5.609375-6.203124-8.730469-14.265624-8.75-22.628906 0-.726562.136719-1.414062.183594-2.125l-23.90625-8.882812c-4.066406 11.625-1.425781 24.539062 6.875 33.636718l-.21875-.066406v51.199219c-.027344 9.414063-7.652344 17.039063-17.066406 17.066406h25.597656c9.414063-.027343 17.039063-7.652343 17.066406-17.066406zm0 0" fill="#fff"/><path d="m8.535156 366.957031h25.597656v34.136719h-25.597656zm0 0" fill="#fff"/><path d="m16 123.757812 19.371094-51.972656 9.683594-25.992187 4.84375-12.996094c.90625-2.3125 1.394531-3.992187 2.644531-6.832031 1.105469-2.671875 2.503906-5.210938 4.175781-7.570313 10.886719-15.6875 30.875-22.222656 48.925781-16l14.023438 5.179688 55.253906 20.59375 110.507813 41.183593 221.015624 82.371094-5.957031 15.992188-221.015625-82.371094-110.511718-41.183594-55.253907-20.59375-13.632812-5.035156c-10.820313-3.730469-22.804688.183594-29.332031 9.585938-2.085938 3.316406-3.71875 6.894531-4.851563 10.640624l-4.839844 12.996094-9.6875 25.984375-19.371093 51.976563zm0 0" fill="#fff"/><g fill="#428dff"><path d="m38.898438 86.753906c-4.414063-1.632812-9.320313.609375-10.976563 5.015625l-11.921875 31.988281 15.992188 5.960938 11.921874-31.988281c1.632813-4.414063-.609374-9.320313-5.015624-10.976563zm0 0"/><path d="m500.488281 167.714844 5.957031-15.992188-221.011718-82.371094-110.507813-41.183593-55.261719-20.59375-14.019531-5.179688c-18.050781-6.226562-38.042969.3125-48.925781 16-2.023438 2.925781-3.6875 6.082031-4.957031 9.40625-1.644531 4.417969.601562 9.332031 5.015625 10.976563 4.417968 1.644531 9.332031-.601563 10.976562-5.015625.773438-1.992188 1.773438-3.886719 2.988282-5.644531 6.527343-9.402344 18.507812-13.320313 29.328124-9.589844l13.632813 5.035156 55.257813 20.597656 110.503906 41.183594zm0 0"/><path d="m39.84375 59.785156c-.757812 2.128906-.6875 4.464844.203125 6.542969l.839844 1.40625c.332031.46875.726562.894531 1.171875 1.257813.367187.398437.792968.742187 1.261718 1.015624.496094.285157 1.007813.539063 1.535157.753907 2.128906.757812 4.464843.6875 6.542969-.203125 2.636718-1.144532 4.503906-3.558594 4.953124-6.398438.449219-2.839844-.582031-5.710937-2.734374-7.617187-.808594-.769531-1.761719-1.371094-2.804688-1.773438-2.117188-.816406-4.476562-.742187-6.539062.203125-2.066407.941406-3.664063 2.675782-4.4375 4.8125zm0 0"/><path d="m391.816406 272.351562c-1.015625 0-2.027344-.183593-2.980468-.539062l-367.816407-137.082031c-2.894531-1.039063-5.003906-3.550781-5.53125-6.582031-.523437-3.027344.625-6.105469 3.003907-8.054688 2.378906-1.945312 5.621093-2.464844 8.488281-1.355469l362.875 135.238281 107.792969-100.5c2.21875-2.152343 5.425781-2.9375 8.386718-2.050781 2.960938.882813 5.210938 3.296875 5.882813 6.3125.675781 3.015625-.332031 6.160157-2.636719 8.21875l-111.644531 104.101563c-1.578125 1.472656-3.660157 2.292968-5.820313 2.292968zm0 0"/><path d="m357.957031 331.445312c-3.058593 0-6.089843-.550781-8.953125-1.625l-319.839844-119.203124c-22.0625-8.25-33.28125-32.800782-25.082031-54.878907l11.921875-31.980469c1.648438-4.414062 6.558594-6.65625 10.976563-5.015624l367.816406 137.078124c4.414063 1.648438 6.660156 6.558594 5.015625 10.976563l-17.878906 47.976563c-3.742188 10.007812-13.292969 16.652343-23.980469 16.671874zm-2.996093-17.617187c4.417968 1.628906 9.320312-.609375 10.980468-5.015625l14.902344-39.976562-351.832031-131.125-8.941407 23.984374c-4.917968 13.25 1.8125 27.980469 15.046876 32.929688zm0 0"/><path d="m388.019531 311.269531c-3.871093 0-7.742187-.257812-11.582031-.773437-4.671875-.628906-7.949219-4.925782-7.320312-9.59375.628906-4.671875 4.925781-7.949219 9.59375-7.324219 31.554687 4.042969 61.757812-14.105469 72.996093-43.867187 5.617188-15.019532 5.734375-31.542969.328125-46.636719-1.597656-4.4375.707032-9.328125 5.144532-10.921875s9.324218.710937 10.921874 5.144531c9.289063 26.082031 5.351563 55.046875-10.566406 77.699219-15.914062 22.652344-41.828125 36.171875-69.515625 36.273437zm0 0"/><path d="m371.753906 228.449219c-1.019531 0-2.03125-.183594-2.988281-.539063l-7.996094-2.988281c-4.414062-1.648437-6.660156-6.5625-5.011719-10.980469 1.648438-4.414062 6.5625-6.660156 10.980469-5.011718l7.996094 2.988281c3.875 1.4375 6.164063 5.449219 5.429687 9.515625-.738281 4.070312-4.28125 7.023437-8.417968 7.015625zm0 0"/><path d="m331.777344 213.550781c-1.019532 0-2.027344-.183593-2.980469-.542969l-295.859375-110.261718c-4.355469-1.6875-6.546875-6.558594-4.914062-10.9375 1.628906-4.375 6.476562-6.628906 10.875-5.054688l295.855468 110.261719c3.875 1.441406 6.160156 5.449219 5.429688 9.515625-.734375 4.066406-4.277344 7.023438-8.410156 7.019531zm0 0"/><path d="m134.203125 303.832031c-1.015625 0-2.023437-.179687-2.976563-.535156l-95.957031-35.761719c-3.441406-1.285156-5.675781-4.625-5.546875-8.296875l1.890625-53.929687c.09375-2.742188 1.503907-5.269532 3.78125-6.792969 2.28125-1.527344 5.15625-1.863281 7.726563-.902344l127.9375 47.675781c2.570312.960938 4.519531 3.09375 5.246094 5.738282.726562 2.644531.136718 5.476562-1.585938 7.613281l-33.871094 42.015625c-1.621094 2.011719-4.0625 3.179688-6.644531 3.175781zm-87.210937-50.144531 84.429687 31.46875 22.582031-28.011719-105.753906-39.410156zm0 0"/><path d="m85.332031 318.792969c-13.777343.042969-26.726562-6.589844-34.738281-17.800781-8.011719-11.210938-10.09375-25.609376-5.589844-38.632813.988282-2.886719 3.4375-5.023437 6.429688-5.613281 2.992187-.585938 6.070312.464844 8.074218 2.761718 2.007813 2.296876 2.632813 5.492188 1.644532 8.375-4.515625 13.09375 2.234375 27.402344 15.214844 32.242188 12.976562 4.835938 27.449218-1.558594 32.601562-14.417969 1.78125-4.304687 6.6875-6.382812 11.019531-4.671875 4.335938 1.710938 6.496094 6.578125 4.855469 10.941406-6.363281 16.246094-22.0625 26.902344-39.511719 26.816407zm0 0"/><path d="m59.734375 409.625h-51.199219c-4.714844 0-8.535156-3.820312-8.535156-8.53125v-34.136719c0-4.710937 3.820312-8.53125 8.535156-8.53125h34.132813c4.710937-.007812 8.527343-3.824219 8.53125-8.535156v-51.199219c0-4.710937 3.820312-8.53125 8.535156-8.53125 4.710937 0 8.53125 3.820313 8.53125 8.53125v51.199219c-.015625 14.132813-11.46875 25.585937-25.597656 25.601563h-25.601563v17.066406h42.667969c14.132813-.015625 25.582031-11.46875 25.597656-25.601563v-57.769531c0-4.710938 3.820313-8.53125 8.535157-8.53125 4.710937 0 8.53125 3.820312 8.53125 8.53125v57.769531c-.027344 23.554688-19.113282 42.640625-42.664063 42.667969zm0 0"/><path d="m8.535156 452.292969c-4.714844 0-8.535156-3.820313-8.535156-8.535157v-119.464843c0-4.714844 3.820312-8.535157 8.535156-8.535157 4.710938 0 8.53125 3.820313 8.53125 8.535157v119.464843c0 4.714844-3.820312 8.535157-8.53125 8.535157zm0 0"/></g></svg>