<svg height="512" viewBox="0 0 58 60" width="512" xmlns="http://www.w3.org/2000/svg"><g id="001---Power-Home" fill="none"><g id="Layer_3" transform="translate(1)"><path id="Shape" d="m50 31.08v26.92c0 .5522847-.4477153 1-1 1h-42c-.55228475 0-1-.4477153-1-1v-26.92l21.82-21.84c.0471208-.04888797.1121-.07650648.18-.07650648s.1328792.02761851.18.07650648z" fill="#e8edfc"/><path id="Shape" d="m28.18 9.24c-.0471208-.04888797-.1121-.07650648-.18-.07650648s-.1328792.02761851-.18.07650648l-1.32 1.32 20.5 20.52v26.92c0 .5522847-.4477153 1-1 1h3c.5522847 0 1-.4477153 1-1v-26.92z" fill="#cad9fc"/><path id="Shape" d="m55.57 29.57-2.82 2.84c-.1877666.1893127-.4433625.2957983-.71.2957983s-.5222334-.1064856-.71-.2957983l-1.33-1.33-21.82-21.84c-.0471208-.04888797-.1121-.07650648-.18-.07650648s-.1328792.02761851-.18.07650648l-21.82 21.84-1.33 1.33c-.1877666.1893127-.44336246.2957983-.71.2957983s-.5222334-.1064856-.71-.2957983l-2.82-2.84c-.38772359-.3900375-.38772359-1.0199625 0-1.41l23.33-23.33 3.53-3.54c.1877666-.18931265.4433625-.29579832.71-.29579832s.5222334.10648567.71.29579832l3.53 3.54 23.33 23.33c.3877236.3900375.3877236 1.0199625 0 1.41z" fill="#a4c2f7"/><path id="Shape" d="m55.57 28.16-23.33-23.33-3.53-3.54c-.1877666-.18931265-.4433625-.29579832-.71-.29579832s-.5222334.10648567-.71.29579832l-.79.79 2.74 2.75 23.33 23.33c.3877236.3900375.3877236 1.0199625 0 1.41l-2 2.05.79.79c.1877666.1893127.4433625.2957983.71.2957983s.5222334-.1064856.71-.2957983l2.82-2.84c.3795498-.3982385.3661449-1.0282657-.03-1.41z" fill="#7facfa"/><path id="Shape" d="m15 10v3.59l-8 8v-11.59c0-.55228475.44771525-1 1-1h6c.5522847 0 1 .44771525 1 1z" fill="#7facfa"/><g fill="#f5f5f5"><path id="Shape" d="m28 55c-6.0352392.0143998-11.400412-3.8404607-13.3123333-9.5648712-1.9119214-5.7244106.0598001-12.0297529 4.8923333-15.6451288.886417-.6682645 2.1467354-.491417 2.815.395.6682645.886417.491417 2.1467354-.395 2.815-3.4434433 2.5825824-4.8479734 7.0788563-3.486833 11.1622777 1.3611405 4.0834214 5.1825289 6.8377223 9.486833 6.8377223s8.1256925-2.7543009 9.486833-6.8377223c1.3611404-4.0834214-.0433897-8.5796953-3.486833-11.1622777-.5716249-.4322914-.8692035-1.1367033-.7806406-1.8478907.0885628-.7111874.5498122-1.321104 1.21-1.6.6601877-.2788961 1.4190157-.1844007 1.9906406.2478907 4.8237778 3.6178205 6.789268 9.9177601 4.8784203 15.6366865-1.9108476 5.7189264-7.2687119 9.5719356-13.2984203 9.5633135z"/><path id="Shape" d="m28 43c-1.1045695 0-2-.8954305-2-2v-15c0-1.1045695.8954305-2 2-2s2 .8954305 2 2v15c0 1.1045695-.8954305 2-2 2z"/></g></g><g id="Layer_4" fill="#fff" transform="translate(7 9)"><path id="Shape" d="m22 46c-6.0352392.0143998-11.400412-3.8404607-13.31233332-9.5648712-1.91192134-5.7244106.05980015-12.0297529 4.89233332-15.6451288.886417-.6682645 2.1467354-.491417 2.815.395.6682645.886417.491417 2.1467354-.395 2.815-3.4434433 2.5825824-4.8479734 7.0788563-3.486833 11.1622777 1.3611405 4.0834214 5.1825289 6.8377223 9.486833 6.8377223s8.1256925-2.7543009 9.486833-6.8377223c1.3611404-4.0834214-.0433897-8.5796953-3.486833-11.1622777-.5716249-.4322914-.8692035-1.1367033-.7806406-1.8478907.0885628-.7111874.5498122-1.321104 1.21-1.6.6601877-.2788961 1.4190157-.1844007 1.9906406.2478907 4.8237778 3.6178205 6.789268 9.9177601 4.8784203 15.6366865-1.9108476 5.7189264-7.2687119 9.5719356-13.2984203 9.5633135z"/><path id="Shape" d="m22 34c-1.1045695 0-2-.8954305-2-2v-15c0-1.1045695.8954305-2 2-2s2 .8954305 2 2v15c0 1.1045695-.8954305 2-2 2z"/><path id="Shape" d="m4 9v-8c0-.55228475.44771525-1 1-1h-3c-.55228475 0-1 .44771525-1 1v11.59"/><path id="Shape" d="m.44 49.8c.13409578.1232209.30797981.1941939.49.2h3c-.18202019-.0058061-.35590422-.0767791-.49-.2-.26694733-.1802425-.43073245-.4780336-.44-.8v-26.92l-1.33 1.33c-.13279034.1295061-.29898326.2195273-.48.26-.33722227.0823609-.69303263-.0160547-.94-.26l-.25-.25v25.84c.00926755.3219664.17305267.6197575.44.8z"/></g><path id="Rectangle-path" d="m6 50h2v8h-2z" fill="#fff"/><g fill="#428dff"><path id="Shape" d="m7 55c-.55228475 0-1-.4477153-1-1s.44771525-1 1-1 1 .4477153 1 1-.44771525 1-1 1z"/><path id="Shape" d="m30.41.59c-.7800749-.77544719-2.0399251-.77544719-2.82 0l-10.59 10.58v-1.17c0-1.1045695-.8954305-2-2-2h-6c-1.1045695 0-2 .8954305-2 2v11.17l-6.28 6.28c-.37555409.3751365-.58657331.8841815-.58657331 1.415s.21101922 1.0398635.58657331 1.415l2.82 2.83c.38550995.3880423.9131289.6012582 1.46.59.35401534-.0096992.69910689-.1132267 1-.3v16.6c0 .5522847.44771525 1 1 1s1-.4477153 1-1v-18.51l21-21 21 21v26.51h-42c0-.5522847-.44771525-1-1-1s-1 .4477153-1 1c0 1.1045695.8954305 2 2 2h42c1.1045695 0 2-.8954305 2-2v-24.6c.3008931.1867733.6459847.2903008 1 .3.5330446.0004224 1.0442036-.2119606 1.42-.59l2.82-2.83c.3755541-.3751365.5865733-.8841815.5865733-1.415s-.2110192-1.0398635-.5865733-1.415zm-21.41 9.41h6v3.17l-6 6zm44 21.7-23.12-23.16c-.2314521-.23701099-.5487233-.37063977-.88-.37063977s-.6485479.13362878-.88.37063977l-23.12 23.16-2.87-2.83 6.56-6.56 8-8 12.31-12.31 26.87 26.87z"/><path id="Shape" d="m23.6 33.78c1.3189469-1.000229 1.5784988-2.8797428.58-4.2-.9988881-1.3062731-2.8631902-1.5649562-4.18-.58-5.1651649 3.8738737-7.2719602 10.6182844-5.2302495 16.7434165s7.7737934 10.2565835 14.2302495 10.2565835 12.1885388-4.1314514 14.2302495-10.2565835-.0650846-12.8695428-5.2302495-16.7434165c-1.3202572-.9984988-3.199771-.7389469-4.2.58-.9984988 1.3202572-.7389469 3.199771.58 4.2 3.0990989 2.3243242 4.3631761 6.3709706 3.1381497 10.0460499-1.2250264 3.6750792-4.664276 6.1539501-8.5381497 6.1539501s-7.3131233-2.4788709-8.5381497-6.1539501c-1.2250264-3.6750793.0390508-7.7217257 3.1381497-10.0460499zm-1.21-1.59c-3.7827161 2.8437621-5.3226158 7.7881989-3.8235373 12.2769278s5.7011041 7.5155633 10.4335373 7.5155633 8.9344588-3.0268344 10.4335373-7.5155633-.0408212-9.4331657-3.8235373-12.2769278c-.4418278-.3313708-.5313708-.9581722-.2-1.4.1591299-.2121732.3960277-.3524422.6585786-.3899495.262551-.0375073.5292482.0308196.7414214.1899495 4.4714052 3.360279 6.292211 9.2039709 4.5209043 14.5093844-1.7713067 5.3054134-6.7376102 8.8831081-12.3309043 8.8831081s-10.5595976-3.5776947-12.3309043-8.8831081c-1.7713067-5.3054135.0494991-11.1491054 4.5209043-14.5093844.1730962-.1298221.3836298-.2.6-.2h.14c.2630733.0371621.5005439.1774857.66.39.1623027.2128269.2325146.4818343.1949261.7468335-.0375886.2649991-.1798399.50387-.3949261.6631665z"/><path id="Shape" d="m32 41v-15c0-1.6568542-1.3431458-3-3-3s-3 1.3431458-3 3v15c0 1.6568542 1.3431458 3 3 3s3-1.3431458 3-3zm-4 0v-15c0-.5522847.4477153-1 1-1s1 .4477153 1 1v15c0 .5522847-.4477153 1-1 1s-1-.4477153-1-1z"/></g></g></svg>