<svg height="512pt" viewBox="-68 0 512 512" width="512pt" xmlns="http://www.w3.org/2000/svg"><path d="m307.199219 298.667969v119.464843h-238.933594v-119.464843c0-61.027344 45.992187-112.246094 106.667969-118.785157 4.253906-.445312 8.523437-.671874 12.800781-.683593 65.980469 0 119.464844 53.488281 119.464844 119.46875zm0 0" fill="#e3e7f2"/><path d="m281.601562 298.667969v119.464843h-213.335937v-119.464843c0-61.027344 45.992187-112.246094 106.667969-118.785157 60.675781 6.539063 106.667968 57.757813 106.667968 118.785157zm0 0" fill="#e3e7f2"/><path d="m341.332031 469.332031h-307.199219l34.132813-51.199219h238.933594zm0 0" fill="#a4c2f7"/><path d="m315.734375 469.332031h-281.601563l34.132813-51.199219h213.335937zm0 0" fill="#d4e1f4"/><path d="m204.800781 366.933594c0 9.425781-7.640625 17.066406-17.066406 17.066406s-17.066406-7.640625-17.066406-17.066406c0-9.425782 7.640625-17.066406 17.066406-17.066406s17.066406 7.640624 17.066406 17.066406zm0 0" fill="#e3e7f2"/><path d="m194.484375 221.867188h-13.5c-4.835937 0-9.453125 2.03125-12.714844 5.605468-3.261719 3.570313-4.867187 8.351563-4.429687 13.167969l5.417968 59.570313c.800782 8.789062 8.167969 15.519531 16.992188 15.523437h2.96875c8.824219-.003906 16.191406-6.734375 16.988281-15.523437l5.417969-59.570313c.441406-4.816406-1.167969-9.597656-4.429688-13.167969-3.261718-3.574218-7.875-5.605468-12.710937-5.605468zm0 0" fill="#e3e7f2"/><path d="m17.066406 469.332031h341.332032c4.714843 0 8.535156 3.820313 8.535156 8.535157v17.066406c0 4.710937-3.820313 8.53125-8.535156 8.53125h-341.332032c-4.710937 0-8.53125-3.820313-8.53125-8.53125v-17.066406c0-4.714844 3.820313-8.535157 8.53125-8.535157zm0 0" fill="#7fabfa"/><path d="m17.066406 469.332031h315.734375c4.710938 0 8.53125 3.820313 8.53125 8.535157v17.066406c0 4.710937-3.820312 8.53125-8.53125 8.53125h-315.734375c-4.710937 0-8.53125-3.820313-8.53125-8.53125v-17.066406c0-4.714844 3.820313-8.535157 8.53125-8.535157zm0 0" fill="#a4c2f7"/><path d="m174.933594 179.882812c-60.675782 6.539063-106.667969 57.757813-106.667969 118.785157v119.464843l-34.132813 51.199219h-17.066406c-4.710937 0-8.53125 3.820313-8.53125 8.535157v17.066406c0 4.710937 3.820313 8.53125 8.53125 8.53125h25.601563c-4.714844 0-8.535157-3.820313-8.535157-8.53125v-17.066406c0-4.714844 3.820313-8.535157 8.535157-8.535157h17.066406l34.132813-51.199219v-119.464843c-.003907-61 45.945312-112.203125 106.589843-118.777344-4.226562-.453125-8.472656-.683594-12.722656-.691406-4.277344.011719-8.546875.238281-12.800781.683593zm0 0" fill="#fff"/><g fill="#428dff"><path d="m341.332031 477.867188h-307.199219c-3.148437 0-6.039062-1.734376-7.523437-4.507813-1.488281-2.777344-1.324219-6.144531.425781-8.761719l34.132813-51.199218c1.582031-2.375 4.246093-3.800782 7.097656-3.796876h238.933594c2.851562-.003906 5.515625 1.421876 7.101562 3.796876l34.132813 51.199218c1.746094 2.617188 1.910156 5.984375.425781 8.761719-1.484375 2.773437-4.378906 4.507813-7.527344 4.507813zm-291.257812-17.066407h275.320312l-22.761719-34.132812h-229.800781zm0 0"/><path d="m273.066406 341.332031c-4.710937 0-8.53125-3.820312-8.53125-8.53125v-25.601562c.058594-16.625-5.335937-32.816407-15.363281-46.078125-2.828125-3.769532-2.0625-9.121094 1.707031-11.949219 3.769532-2.828125 9.121094-2.0625 11.949219 1.707031 12.242187 16.21875 18.835937 36 18.773437 56.320313v25.601562c0 4.710938-3.820312 8.53125-8.535156 8.53125zm0 0"/><path d="m187.734375 42.667969c-4.714844 0-8.535156-3.820313-8.535156-8.535157v-25.597656c0-4.714844 3.820312-8.535156 8.535156-8.535156 4.710937 0 8.53125 3.820312 8.53125 8.535156v25.597656c0 4.714844-3.820313 8.535157-8.53125 8.535157zm0 0"/><path d="m256 51.199219c-2.742188 0-5.316406-1.320313-6.917969-3.542969-1.601562-2.226562-2.039062-5.085938-1.171875-7.6875l8.535156-25.597656c.960938-2.898438 3.398438-5.058594 6.386719-5.671875s6.082031.414062 8.105469 2.695312c2.027344 2.28125 2.683594 5.472657 1.71875 8.367188l-8.53125 25.601562c-1.164062 3.496094-4.441406 5.847657-8.125 5.835938zm0 0"/><path d="m315.734375 68.265625c-3.453125 0-6.5625-2.078125-7.882813-5.265625-1.320312-3.191406-.589843-6.859375 1.847657-9.300781l8.535156-8.53125c2.140625-2.21875 5.3125-3.109375 8.296875-2.328125s5.316406 3.109375 6.09375 6.09375c.78125 2.984375-.105469 6.15625-2.324219 8.300781l-8.535156 8.53125c-1.597656 1.601563-3.769531 2.5-6.03125 2.5zm0 0"/><path d="m59.734375 68.265625c-2.265625 0-4.433594-.898437-6.035156-2.5l-8.53125-8.53125c-3.234375-3.347656-3.1875-8.671875.101562-11.964844 3.292969-3.289062 8.617188-3.335937 11.964844-.101562l8.53125 8.53125c2.441406 2.441406 3.171875 6.109375 1.851563 9.300781-1.324219 3.1875-4.433594 5.265625-7.882813 5.265625zm0 0"/><path d="m119.464844 51.199219c-3.667969-.003907-6.925782-2.351563-8.085938-5.835938l-8.535156-25.601562c-1.488281-4.476563.933594-9.3125 5.410156-10.800781 4.476563-1.488282 9.3125.933593 10.804688 5.410156l8.53125 25.597656c.867187 2.609375.429687 5.472656-1.179688 7.699219-1.613281 2.226562-4.195312 3.539062-6.945312 3.53125zm0 0"/><path d="m187.734375 392.535156c-14.140625 0-25.601563-11.464844-25.601563-25.601562 0-14.140625 11.460938-25.601563 25.601563-25.601563 14.136719 0 25.597656 11.460938 25.597656 25.601563 0 14.136718-11.460937 25.601562-25.597656 25.601562zm0-34.136718c-4.714844 0-8.535156 3.820312-8.535156 8.535156 0 4.710937 3.820312 8.53125 8.535156 8.53125 4.710937 0 8.53125-3.820313 8.53125-8.53125 0-4.714844-3.820313-8.535156-8.53125-8.535156zm0 0"/><path d="m189.21875 324.265625h-2.96875c-13.261719.058594-24.347656-10.066406-25.492188-23.277344l-5.449218-59.582031c-.660156-7.195312 1.738281-14.339844 6.609375-19.679688 4.867187-5.339843 11.761719-8.386718 18.988281-8.394531h13.5c7.226562.007813 14.121094 3.054688 18.992188 8.394531 4.867187 5.339844 7.265624 12.484376 6.609374 19.679688l-5.421874 59.582031c-1.136719 13.164063-12.152344 23.273438-25.367188 23.277344zm-8.234375-93.867187c-2.433594.011718-4.746094 1.039062-6.382813 2.835937-1.636718 1.796875-2.445312 4.199219-2.226562 6.621094l5.417969 59.585937c.402343 4.410156 4.105469 7.777344 8.53125 7.757813h2.972656c4.421875.019531 8.128906-3.347657 8.53125-7.757813l5.417969-59.585937c.222656-2.449219-.605469-4.875-2.277344-6.675781-1.671875-1.804688-4.027344-2.8125-6.484375-2.78125zm0 0"/><path d="m273.066406 392.535156c-4.710937 0-8.53125-3.824218-8.53125-8.535156v-17.066406c0-4.714844 3.820313-8.535156 8.53125-8.535156 4.714844 0 8.535156 3.820312 8.535156 8.535156v17.066406c0 4.710938-3.820312 8.535156-8.535156 8.535156zm0 0"/></g><path d="m187.734375 187.734375c-61.191406.183594-110.75 49.742187-110.933594 110.933594h-17.066406c.183594-70.617188 57.382813-127.820313 128-128zm0 0" fill="#fff"/><path d="m145.996094 186.878906c1.570312 4.238282 6.101562 6.59375 10.472656 5.4375 10.175781-2.894531 20.6875-4.433594 31.265625-4.582031v-17.066406c-12.203125.136719-24.332031 1.898437-36.070313 5.238281-2.265624.617188-4.167968 2.15625-5.246093 4.242188-1.078125 2.085937-1.230469 4.527343-.421875 6.730468zm0 0" fill="#428dff"/><path d="m59.734375 298.667969h17.066406c.0625-23.925781 7.84375-47.191407 22.1875-66.339844 1.507813-2.167969 3.15625-4.234375 4.9375-6.1875 2.871094-3.554687 2.566407-8.710937-.707031-11.902344-1.671875-1.605469-3.941406-2.441406-6.253906-2.304687-2.316406.140625-4.46875 1.238281-5.941406 3.03125-2.042969 2.257812-3.945313 4.640625-5.699219 7.132812-16.546875 22.105469-25.519531 48.957032-25.589844 76.570313zm0 0" fill="#428dff"/><path d="m127.777344 205.429688c1.800781-1.160157 3.078125-2.980469 3.566406-5.066407l.207031-1.621093c.03125-.570313-.003906-1.144532-.113281-1.707032-.03125-.546875-.140625-1.085937-.324219-1.605468-.183593-.542969-.410156-1.074219-.671875-1.585938-1.089844-1.96875-2.941406-3.40625-5.121094-3.96875-1.125-.21875-2.285156-.21875-3.414062 0-3.617188.554688-6.507812 3.3125-7.226562 6.902344-.179688 1.136718-.125 2.300781.160156 3.414062.253906 1.089844.726562 2.113282 1.394531 3.011719 1.371094 1.757813 3.324219 2.96875 5.511719 3.414063 2.085937.261718 4.199218-.152344 6.03125-1.1875zm0 0" fill="#428dff"/><path d="m307.199219 426.667969c-4.710938 0-8.53125-3.820313-8.53125-8.535157v-119.464843c-.070313-61.238281-49.695313-110.863281-110.933594-110.933594-4.714844 0-8.535156-3.820313-8.535156-8.535156 0-4.710938 3.820312-8.53125 8.535156-8.53125 70.660156.078125 127.917969 57.339843 128 128v119.464843c0 4.714844-3.820313 8.535157-8.535156 8.535157zm0 0" fill="#428dff"/><path d="m68.265625 426.667969c-4.710937 0-8.53125-3.820313-8.53125-8.535157v-119.464843c0-4.714844 3.820313-8.535157 8.53125-8.535157 4.714844 0 8.535156 3.820313 8.535156 8.535157v119.464843c0 4.714844-3.820312 8.535157-8.535156 8.535157zm0 0" fill="#428dff"/><path d="m324.191406 204.800781c-2.6875 0-5.214844-1.265625-6.828125-3.414062-30.582031-40.832031-78.613281-64.871094-129.628906-64.871094s-99.050781 24.039063-129.632813 64.871094c-2.824218 3.769531-8.175781 4.535156-11.945312 1.707031s-4.535156-8.175781-1.707031-11.945312c33.8125-45.113282 86.890625-71.664063 143.265625-71.664063s109.457031 26.550781 143.265625 71.664063c1.941406 2.582031 2.253906 6.042968.808593 8.933593-1.445312 2.890625-4.402343 4.71875-7.632812 4.71875zm0 0" fill="#428dff"/><path d="m290.132812 110.59375c-1.371093 0-2.722656-.332031-3.941406-.964844-61.636718-32.394531-135.261718-32.394531-196.898437 0-4.179688 2.179688-9.339844.5625-11.519531-3.621094-2.183594-4.179687-.5625-9.335937 3.617187-11.519531 66.589844-34.964843 146.113281-34.964843 212.703125 0 3.488281 1.820313 5.285156 5.785157 4.34375 9.609375-.9375 3.820313-4.367188 6.503906-8.304688 6.496094zm0 0" fill="#428dff"/><path d="m358.398438 512h-341.332032c-9.425781 0-17.066406-7.640625-17.066406-17.066406v-17.066406c0-9.425782 7.640625-17.066407 17.066406-17.066407h341.332032c9.425781 0 17.066406 7.640625 17.066406 17.066407v17.066406c0 9.425781-7.640625 17.066406-17.066406 17.066406zm-341.332032-34.132812v17.066406h341.332032v-17.066406zm0 0" fill="#428dff"/></svg>